<svg width="48" height="48" viewBox="0 0 48 48" fill="none" xmlns="http://www.w3.org/2000/svg">
  <!-- matching outer border -->
  <rect x="4" y="4" width="40" height="40" rx="8" fill="#ffd400" stroke="#711fb7" stroke-width="2"></rect>

  <!-- original fork/knife icon, recolored and centered -->
  <g transform="translate(7.5 6.5) scale(0.88)">
    <path fill="#ffd400" d="M25.16328125 2.45234375c3 2.228125 7.19296875 8.37109375 7.61484375 17.8578125 0.04375 0.98203125 -0.434375 1.9125 -1.3265625 2.3265625 -0.63671875 0.2953125 -1.49765625 0.63125 -2.58203125 0.9171875a0.80625 0.80625 0 0 0 -0.6015625 0.88671875l0.9578125 6.7015625c0.265625 1.86171875 -0.46328125 3.5296875 -2.27734375 4.02890625 -1.6953125 0.4671875 -3.5109375 -0.659375 -3.5109375 -2.41875V3.5203125c0 -1.003125 0.9203125 -1.665625 1.72578125 -1.06796875Z"></path>
    <path fill="#ffd400" d="M17.1453125 4.1859375c0.359375 2.1234375 0.8625 5.83359375 0.821875 9.7953125 -0.02109375 2.04453125 -1.38671875 3.8765625 -3.53359375 4.3578125 -0.44296875 0.09921875 -0.91640625 0.1890625 -1.41015625 0.25859375l1.440625 12.484375c0.21875 1.9 -0.9578125 3.76328125 -2.85234375 4.01953125A5.2109375 5.2109375 0 0 1 10.9375 35.15625a5.2109375 5.2109375 0 0 1 -0.6734375 -0.0546875c-1.89453125 -0.25625 -3.071875 -2.11953125 -2.85234375 -4.01953125l1.440625 -12.484375a17.92734375 17.92734375 0 0 1 -1.41015625 -0.2578125c-2.146875 -0.48203125 -3.5125 -2.31484375 -3.53359375 -4.359375 -0.040625 -3.9609375 0.4609375 -7.6703125 0.8203125 -9.79375C4.9125 3.1046875 5.859375 2.34375 6.95625 2.34375h7.96171875c1.09765625 0 2.04375 0.76015625 2.2265625 1.8421875Z"></path>

    <path stroke="#711fb7" stroke-width="2.5" stroke-linecap="round" stroke-linejoin="round" d="M25.16328125 2.45234375c3 2.228125 7.19296875 8.37109375 7.61484375 17.8578125 0.04375 0.98203125 -0.434375 1.9125 -1.3265625 2.3265625 -0.63671875 0.2953125 -1.49765625 0.63125 -2.58203125 0.9171875a0.80625 0.80625 0 0 0 -0.6015625 0.88671875l0.9578125 6.7015625c0.265625 1.86171875 -0.46328125 3.5296875 -2.27734375 4.02890625 -1.6953125 0.4671875 -3.5109375 -0.659375 -3.5109375 -2.41875V3.5203125c0 -1.003125 0.9203125 -1.665625 1.72578125 -1.06796875Z"></path>
    <path stroke="#711fb7" stroke-width="2.5" stroke-linecap="round" stroke-linejoin="round" d="M17.14453125 4.1859375c0.359375 2.1234375 0.8625 5.83359375 0.821875 9.7953125 -0.0203125 2.04453125 -1.3859375 3.8765625 -3.5328125 4.3578125 -0.44375 0.09921875 -0.91640625 0.1890625 -1.41015625 0.25859375l1.440625 12.484375c0.21875 1.9 -0.9578125 3.76328125 -2.853125 4.01953125A5.2109375 5.2109375 0 0 1 10.9375 35.15625c-0.18984375 0 -0.4203125 -0.0203125 -0.67421875 -0.0546875 -1.89453125 -0.25625 -3.07109375 -2.11953125 -2.8515625 -4.01953125l1.43984375 -12.484375a17.9265625 17.9265625 0 0 1 -1.409375 -0.2578125c-2.14765625 -0.48203125 -3.51328125 -2.31484375 -3.534375 -4.359375 -0.03984375 -3.9609375 0.46171875 -7.6703125 0.82109375 -9.79375C4.91171875 3.1046875 5.85859375 2.34375 6.95546875 2.34375h7.9625c1.09765625 0 2.04375 0.76015625 2.2265625 1.8421875Z"></path>
    <path stroke="#711fb7" stroke-width="2.5" stroke-linecap="round" stroke-linejoin="round" d="M8.984375 2.34375 8.59375 10.9375"></path>
    <path stroke="#711fb7" stroke-width="2.5" stroke-linecap="round" stroke-linejoin="round" d="m12.890625 2.34375 0.390625 8.59375"></path>
  </g>
</svg>